<?xml version="1.0" encoding="UTF-8" standalone="no"?>
<svg
   xmlns:dc="http://purl.org/dc/elements/1.1/"
   xmlns:cc="http://creativecommons.org/ns#"
   xmlns:rdf="http://www.w3.org/1999/02/22-rdf-syntax-ns#"
   xmlns:svg="http://www.w3.org/2000/svg"
   xmlns="http://www.w3.org/2000/svg"
   viewBox="0 0 141.33333 141.33333"
   height="141.33333"
   width="141.33333"
   xml:space="preserve"
   id="svg2"
   version="1.1"><metadata
     id="metadata8"><rdf:RDF><cc:Work
         rdf:about=""><dc:format>image/svg+xml</dc:format><dc:type
           rdf:resource="http://purl.org/dc/dcmitype/StillImage" /></cc:Work></rdf:RDF></metadata><defs
     id="defs6"><clipPath
       id="clipPath22"
       clipPathUnits="userSpaceOnUse"><path
         id="path20"
         d="M 0,106 H 106 V 0 H 0 Z" /></clipPath></defs><g
     transform="matrix(1.3333333,0,0,-1.3333333,0,141.33333)"
     id="g10"><g
       transform="translate(8.2246,98.0571)"
       id="g12"><path
         id="path14"
         style="fill:none;stroke:#f8f8f8;stroke-width:1.5;stroke-linecap:butt;stroke-linejoin:miter;stroke-miterlimit:10;stroke-dasharray:none;stroke-opacity:1"
         d="M 0,0 H 89.884" /></g><g
       id="g16"><g
         clip-path="url(#clipPath22)"
         id="g18"><g
           transform="translate(70.1016,46.7969)"
           id="g24"><path
             id="path26"
             style="fill:#ff3b4a;fill-opacity:1;fill-rule:nonzero;stroke:none"
             d="M 0,0 C 3.228,0 5.845,2.862 5.845,6.392 5.845,9.92 3.228,12.783 0,12.783 -3.229,12.783 -5.846,9.92 -5.846,6.392 -5.846,2.862 -3.229,0 0,0" /></g><g
           transform="translate(38.6035,46.7969)"
           id="g28"><path
             id="path30"
             style="fill:#00b4f0;fill-opacity:1;fill-rule:nonzero;stroke:none"
             d="M 0,0 C 3.228,0 5.845,2.862 5.845,6.392 5.845,9.92 3.228,12.783 0,12.783 -3.228,12.783 -5.845,9.92 -5.845,6.392 -5.845,2.862 -3.228,0 0,0" /></g><g
           transform="translate(8.2246,7.8105)"
           id="g32"><path
             id="path34"
             style="fill:none;stroke:#f8f8f8;stroke-width:1.5;stroke-linecap:butt;stroke-linejoin:miter;stroke-miterlimit:10;stroke-dasharray:none;stroke-opacity:1"
             d="M 0,0 H 89.884" /></g><g
           transform="translate(1.8335,98.0571)"
           id="g36"><path
             id="path38"
             style="fill:#ff3a4b;fill-opacity:1;fill-rule:nonzero;stroke:none"
             d="m 0,0 c 0,-3.529 2.862,-6.391 6.391,-6.391 3.529,0 6.391,2.862 6.391,6.391 0,3.529 -2.862,6.391 -6.391,6.391 C 2.862,6.391 0,3.529 0,0" /></g><g
           transform="translate(98.1084,91.666)"
           id="g40"><path
             id="path42"
             style="fill:#00b4f0;fill-opacity:1;fill-rule:nonzero;stroke:none"
             d="M 0,0 C 3.529,0 6.392,2.862 6.392,6.391 6.392,9.92 3.529,12.782 0,12.782 -3.529,12.782 -6.391,9.92 -6.391,6.391 -6.391,2.862 -3.529,0 0,0" /></g><g
           transform="translate(1.8335,7.8105)"
           id="g44"><path
             id="path46"
             style="fill:#00b4f0;fill-opacity:1;fill-rule:nonzero;stroke:none"
             d="m 0,0 c 0,-3.528 2.862,-6.391 6.391,-6.391 3.529,0 6.391,2.863 6.391,6.391 0,3.53 -2.862,6.392 -6.391,6.392 C 2.862,6.392 0,3.53 0,0" /></g><g
           transform="translate(98.1084,1.4199)"
           id="g48"><path
             id="path50"
             style="fill:#ff3b4a;fill-opacity:1;fill-rule:nonzero;stroke:none"
             d="M 0,0 C 3.529,0 6.392,2.862 6.392,6.391 6.392,9.92 3.529,12.782 0,12.782 -3.529,12.782 -6.391,9.92 -6.391,6.391 -6.391,2.862 -3.529,0 0,0" /></g></g></g></g></svg>